HIERARCHY
ROOT Hips
{
	OFFSET 0.000000 0.000000 0.000000
	CHANNELS 6 Xposition Yposition Zposition Xrotation Yrotation Zrotation
	JOINT LeftUpLeg_virtual
	{
		OFFSET 0.000000 0.000000 0.000000
		CHANNELS 3 Xrotation Yrotation Zrotation
		JOINT LeftUpLeg
		{
			OFFSET 11.394100 -6.187798 -0.413800
			CHANNELS 3 Xrotation Yrotation Zrotation
			JOINT LeftLeg
			{
				OFFSET 0.430247 -32.302673 3.732800
				CHANNELS 3 Xrotation Yrotation Zrotation
				JOINT LeftFoot
				{
					OFFSET -0.430247 -48.264931 -6.423300
					CHANNELS 3 Xrotation Yrotation Zrotation
					JOINT LeftToeBase
					{
						OFFSET 4.230900 -16.068199 23.438400
						CHANNELS 3 Xrotation Yrotation Zrotation
						JOINT LeftToe_End
						{
							OFFSET 4.510700 0.695400 19.974600
							CHANNELS 3 Xrotation Yrotation Zrotation
							End Site
							{
								OFFSET 0 0 0
							}
						}
					}
				}
			}
		}
	}
	JOINT RightUpLeg_virtual
	{
		OFFSET 0.000000 0.000000 0.000000
		CHANNELS 3 Xrotation Yrotation Zrotation
		JOINT RightUpLeg
		{
			OFFSET -11.333700 -6.187798 -0.413800
			CHANNELS 3 Xrotation Yrotation Zrotation
			JOINT RightLeg
			{
				OFFSET -0.430392 -32.302628 3.733000
				CHANNELS 3 Xrotation Yrotation Zrotation
				JOINT RightFoot
				{
					OFFSET 0.430392 -48.264973 -6.423500
					CHANNELS 3 Xrotation Yrotation Zrotation
					JOINT RightToeBase
					{
						OFFSET -4.230900 -16.068199 23.438400
						CHANNELS 3 Xrotation Yrotation Zrotation
						JOINT RightToe_End
						{
							OFFSET -4.510700 0.695400 19.974600
							CHANNELS 3 Xrotation Yrotation Zrotation
							End Site
							{
								OFFSET 0 0 0
							}
						}
					}
				}
			}
		}
	}
	JOINT Spine_virtual
	{
		OFFSET 0.000000 0.000000 0.000000
		CHANNELS 3 Xrotation Yrotation Zrotation
		JOINT Spine
		{
			OFFSET -0.002400 12.777504 0.315300
			CHANNELS 3 Xrotation Yrotation Zrotation
			JOINT Spine1
			{
				OFFSET -0.002067 5.816869 0.032633
				CHANNELS 3 Xrotation Yrotation Zrotation
				JOINT Spine1_split
				{
					OFFSET -0.002067 5.816869 0.032633
					CHANNELS 3 Xrotation Yrotation Zrotation
					JOINT Spine2
					{
						OFFSET -0.002067 5.816869 0.032633
						CHANNELS 3 Xrotation Yrotation Zrotation
						JOINT Neck_virtual
						{
							OFFSET 0.000000 0.000000 0.000000
							CHANNELS 3 Xrotation Yrotation Zrotation
							JOINT Neck
							{
								OFFSET -0.003700 21.199493 -0.826900
								CHANNELS 3 Xrotation Yrotation Zrotation
								JOINT Head
								{
									OFFSET 0.000000 20.442200 4.834800
									CHANNELS 3 Xrotation Yrotation Zrotation
									JOINT HeadTop_End
									{
										OFFSET 0.000000 34.668396 4.968400
										CHANNELS 3 Xrotation Yrotation Zrotation
										End Site
										{
											OFFSET 0 0 0
										}
									}
								}
							}
						}
						JOINT LeftShoulder_virtual
						{
							OFFSET 0.000000 0.000000 0.000000
							CHANNELS 3 Xrotation Yrotation Zrotation
							JOINT LeftShoulder
							{
								OFFSET 3.288150 8.794197 -1.372250
								CHANNELS 3 Xrotation Yrotation Zrotation
								JOINT LeftShoulder_split
								{
									OFFSET 3.288150 8.794197 -1.372250
									CHANNELS 3 Xrotation Yrotation Zrotation
									JOINT LeftArm
									{
										OFFSET 11.953299 -2.279007 -0.146200
										CHANNELS 3 Xrotation Yrotation Zrotation
										JOINT LeftForeArm
										{
											OFFSET 18.448900 0.000000 0.000000
											CHANNELS 3 Xrotation Yrotation Zrotation
											JOINT LeftHand
											{
												OFFSET 29.527798 0.000000 0.000000
												CHANNELS 3 Xrotation Yrotation Zrotation
												End Site
												{
													OFFSET 0 0 0
												}
											}
										}
									}
								}
							}
						}
						JOINT RightShoulder_virtual
						{
							OFFSET 0.000000 0.000000 0.000000
							CHANNELS 3 Xrotation Yrotation Zrotation
							JOINT RightShoulder
							{
								OFFSET -3.249400 8.794197 -1.372250
								CHANNELS 3 Xrotation Yrotation Zrotation
								JOINT RightShoulder_split
								{
									OFFSET -3.249400 8.794197 -1.372250
									CHANNELS 3 Xrotation Yrotation Zrotation
									JOINT RightArm
									{
										OFFSET -11.953299 -2.279007 -0.146200
										CHANNELS 3 Xrotation Yrotation Zrotation
										JOINT RightForeArm
										{
											OFFSET -18.448900 0.000000 0.000000
											CHANNELS 3 Xrotation Yrotation Zrotation
											JOINT RightHand
											{
												OFFSET -29.527802 0.000000 0.000000
												CHANNELS 3 Xrotation Yrotation Zrotation
												End Site
												{
													OFFSET 0 0 0
												}
											}
										}
									}
								}
							}
						}
					}
				}
			}
		}
	}
}
MOTION
Frames: 10
Frame Time: 0.03333333
-0.066756 102.162201 -1.007931 0.000000 0.000000 0.000000 -3.421332 3.926085 -4.102556 -34.801740 -10.431619 -1.346353 56.940354 0.298573 0.126596 14.588056 2.746347 9.120609 -27.884531 0.378713 -7.432626 0.000000 0.000000 0.000000 -3.421332 3.926085 -4.102556 -19.006511 -11.573498 7.252560 37.129646 -0.473483 0.149850 7.060771 -0.103137 -7.397244 -26.816812 1.229520 -0.013307 0.000000 0.000000 0.000000 -3.421332 3.926085 -4.102556 7.488175 -0.290077 0.126920 -2.114713 -0.634066 1.955411 0.000000 0.000000 0.000000 0.000000 0.000000 0.000000 -2.107417 -0.526124 1.991271 -6.842735 -2.682117 0.508893 2.526784 0.702883 0.466853 0.000000 0.000000 0.000000 -2.107417 -0.526124 1.991271 1.091369 1.577359 -3.543032 0.000000 0.000000 0.000000 -1.207960 1.492936 -78.012761 20.698682 -13.799223 -0.079231 0.000000 0.000000 0.000000 -2.107417 -0.526124 1.991271 0.487466 5.285027 4.298000 0.000000 0.000000 0.000000 -7.282517 4.832114 74.584832 13.988547 13.383142 -4.466971 0.000000 0.000000 0.000000 
0.291908 102.935715 1.415737 0.000000 0.000000 0.000000 -2.705655 2.893781 -3.031571 -35.104129 -7.634097 -1.681278 48.329736 -0.043370 0.050201 15.045957 2.563879 8.654056 -25.316023 0.017903 -0.772336 0.000000 0.000000 0.000000 -2.705655 2.893781 -3.031571 -16.845552 -12.270316 5.233489 35.403848 2.186958 0.379378 5.954515 -0.286511 -7.411819 -27.700510 1.173364 0.505493 0.000000 0.000000 0.000000 -2.705655 2.893781 -3.031571 6.865319 0.003244 -0.296080 -2.080431 -0.313499 1.675652 0.000000 0.000000 0.000000 0.000000 0.000000 0.000000 -2.058832 -0.215385 1.707925 -6.824233 -1.991732 0.148009 2.570388 1.192967 0.558138 0.000000 0.000000 0.000000 -2.058832 -0.215385 1.707925 1.161758 2.620607 -4.138580 0.000000 0.000000 0.000000 -0.675546 1.681685 -77.754020 23.741082 -14.201289 0.898235 0.000000 0.000000 0.000000 -2.058832 -0.215385 1.707925 0.521029 5.806646 4.065538 0.000000 0.000000 0.000000 -8.045853 5.987350 74.740356 12.972005 13.640117 -3.836563 0.000000 0.000000 0.000000 
0.670167 103.354462 3.829399 0.000000 0.000000 0.000000 -2.033790 1.939860 -2.546350 -34.687242 -4.065769 -1.365124 38.459241 -2.359546 -0.168287 18.481454 3.764419 8.393587 -24.998836 0.025074 0.048788 0.000000 0.000000 0.000000 -2.033790 1.939860 -2.546350 -14.935271 -14.554180 3.494160 34.049784 6.204103 0.767571 4.980286 -0.236176 -8.283473 -27.826804 1.119460 1.113432 0.000000 0.000000 0.000000 -2.033790 1.939860 -2.546350 6.503257 0.307936 0.155441 -2.164170 -0.087649 1.327397 0.000000 0.000000 0.000000 0.000000 0.000000 0.000000 -2.103373 -0.002019 1.355804 -6.706182 -1.103626 -0.543467 2.558715 1.719132 0.758874 0.000000 0.000000 0.000000 -2.103373 -0.002019 1.355804 1.326058 3.845517 -5.238573 0.000000 0.000000 0.000000 -0.005114 2.080355 -77.146481 25.494455 -14.592178 1.554039 0.000000 0.000000 0.000000 -2.103373 -0.002019 1.355804 0.568234 6.440959 3.658638 0.000000 0.000000 0.000000 -8.430296 8.119883 74.878298 10.227164 15.268106 -3.522358 0.000000 0.000000 0.000000 
1.155813 103.307785 6.250389 0.000000 0.000000 0.000000 -1.051838 0.579464 -2.167046 -33.619021 0.610420 -0.359316 26.801744 -2.462949 -0.175896 24.657567 2.003805 3.960848 -25.008201 0.035683 0.070645 0.000000 0.000000 0.000000 -1.051838 0.579464 -2.167046 -14.302138 -16.971931 1.720836 34.007946 9.867511 0.902776 3.612627 0.134706 -8.885803 -28.127141 1.064181 1.118047 0.000000 0.000000 0.000000 -1.051838 0.579464 -2.167046 6.133003 0.769715 0.984460 -2.415186 0.285827 0.861850 0.000000 0.000000 0.000000 0.000000 0.000000 0.000000 -2.279706 0.356748 0.875466 -6.516888 -0.113615 -1.146703 2.435895 2.406443 0.840325 0.000000 0.000000 0.000000 -2.279706 0.356748 0.875466 1.561004 4.901430 -6.501984 0.000000 0.000000 0.000000 0.928782 2.852962 -76.443716 25.950564 -15.000407 2.001417 0.000000 0.000000 0.000000 -2.279706 0.356748 0.875466 0.610002 6.612298 3.312221 0.000000 0.000000 0.000000 -8.250055 11.492344 74.614769 8.393935 17.168724 -3.295264 0.000000 0.000000 0.000000 
1.454567 103.150406 8.829830 0.000000 0.000000 0.000000 -0.581838 -0.466882 -2.465056 -33.475932 4.166433 1.152640 19.043730 1.085516 0.100755 26.319413 -1.301532 -1.987555 -25.054759 0.039512 0.078555 0.000000 0.000000 0.000000 -0.581838 -0.466882 -2.465056 -12.399818 -19.897649 0.874313 33.506343 13.190495 1.112092 2.010295 0.630779 -10.148672 -28.667687 1.001311 1.596420 0.000000 0.000000 0.000000 -0.581838 -0.466882 -2.465056 6.234379 1.236421 1.188585 -2.713911 0.301720 1.515031 0.000000 0.000000 0.000000 0.000000 0.000000 0.000000 -2.581278 0.432835 1.513153 -6.177116 1.402243 -2.943447 2.310208 3.063961 1.261983 0.000000 0.000000 0.000000 -2.581278 0.432835 1.513153 2.076389 6.498106 -8.978070 0.000000 0.000000 0.000000 2.173341 3.162899 -75.453592 25.663944 -15.542396 2.187249 0.000000 0.000000 0.000000 -2.581278 0.432835 1.513153 0.968730 7.637006 0.422387 0.000000 0.000000 0.000000 -8.482535 11.768438 76.022888 9.287157 19.290433 -3.919852 0.000000 0.000000 0.000000 
1.678516 102.773575 11.456516 0.000000 0.000000 0.000000 -0.386948 -0.794731 -3.018144 -32.441893 3.268498 1.498196 11.463972 3.129949 0.008051 28.991933 -2.335005 -4.830710 -25.202117 0.030341 0.059727 0.000000 0.000000 0.000000 -0.386948 -0.794731 -3.018144 -10.082031 -21.857247 1.072293 33.478988 13.973381 1.132059 -0.642835 1.070574 -12.139912 -29.100591 0.941625 3.240820 0.000000 0.000000 0.000000 -0.386948 -0.794731 -3.018144 6.712993 1.490915 0.472522 -3.208121 -0.247009 3.170755 0.000000 0.000000 0.000000 0.000000 0.000000 0.000000 -3.188771 0.045642 3.159575 -5.411291 3.255759 -5.241168 2.023084 3.946270 1.433077 0.000000 0.000000 0.000000 -3.188771 0.045642 3.159575 2.835393 8.745194 -12.139155 0.000000 0.000000 0.000000 3.471255 3.542353 -74.800994 26.017430 -15.657990 2.050271 0.000000 0.000000 0.000000 -3.188771 0.045642 3.159575 1.385071 9.746105 -3.580974 0.000000 0.000000 0.000000 -8.462184 9.876565 78.056454 10.268713 20.394678 -4.235263 0.000000 0.000000 0.000000 
1.895602 102.105492 14.506153 0.000000 0.000000 0.000000 -0.227951 -0.411136 -3.784434 -31.961768 5.502572 1.721894 7.047808 -0.794522 -0.318117 34.891584 -3.166446 -4.725501 -25.417504 0.001776 0.000564 0.000000 0.000000 0.000000 -0.227951 -0.411136 -3.784434 -7.088851 -21.833098 2.558781 33.517183 11.561806 0.972294 -4.600941 1.278887 -14.075329 -29.545185 0.864392 3.878184 0.000000 0.000000 0.000000 -0.227951 -0.411136 -3.784434 8.365985 1.278552 1.632742 -4.428563 -0.841838 2.670546 0.000000 0.000000 0.000000 0.000000 0.000000 0.000000 -4.391909 -0.486678 2.610560 -6.338899 3.493517 -2.006121 3.383297 5.855994 -1.061604 0.000000 0.000000 0.000000 -4.391909 -0.486678 2.610560 2.354687 13.088309 -9.808244 0.000000 0.000000 0.000000 5.125870 2.817133 -77.012295 26.986815 -15.727941 1.865735 0.000000 0.000000 0.000000 -4.391909 -0.486678 2.610560 1.570656 10.149906 -3.118639 0.000000 0.000000 0.000000 -8.103337 11.000787 78.111546 7.715937 21.566018 -3.226950 0.000000 0.000000 0.000000 
2.102432 101.019783 18.105099 0.000000 0.000000 0.000000 -0.056995 0.175857 -3.996776 -34.179540 8.630013 1.378026 11.250460 -7.039958 -1.988387 36.613905 -2.544212 0.891216 -25.438104 -0.092823 -0.195558 0.000000 0.000000 0.000000 -0.056995 0.175857 -3.996776 -4.063332 -20.974871 3.445729 33.864378 9.777773 0.824788 -8.816111 1.232117 -14.950207 -29.504457 0.826624 3.552725 0.000000 0.000000 0.000000 -0.056995 0.175857 -3.996776 7.419610 1.256907 1.134624 -4.027823 -1.000626 3.050760 0.000000 0.000000 0.000000 0.000000 0.000000 0.000000 -4.043319 -0.619600 3.030188 -7.198925 3.658304 -1.499532 3.713546 6.223302 -1.370684 0.000000 0.000000 0.000000 -4.043319 -0.619600 3.030188 2.295808 12.822121 -9.630621 0.000000 0.000000 0.000000 5.305737 4.107310 -77.522791 26.651349 -15.181636 1.988432 0.000000 0.000000 0.000000 -4.043319 -0.619600 3.030188 1.557805 9.742739 -3.276321 0.000000 0.000000 0.000000 -7.876887 11.200359 78.394657 6.955495 21.553731 -2.946502 0.000000 0.000000 0.000000 
2.449436 100.259789 21.878082 0.000000 0.000000 0.000000 -0.315491 0.603616 -3.372448 -34.721557 9.556040 0.536658 15.657252 -9.923282 -3.939822 34.640889 -1.240819 8.644820 -25.196305 -0.122107 -0.254442 0.000000 0.000000 0.000000 -0.315491 0.603616 -3.372448 -0.983044 -20.643133 2.511456 33.463064 10.195884 0.913309 -11.429898 0.937268 -14.566642 -29.262976 0.800523 2.869182 0.000000 0.000000 0.000000 -0.315491 0.603616 -3.372448 6.055714 1.180574 0.313638 -3.304955 -0.825250 2.956957 0.000000 0.000000 0.000000 0.000000 0.000000 0.000000 -3.343147 -0.489881 2.978656 -7.669660 3.464298 -1.002385 3.894182 6.214330 -1.376464 0.000000 0.000000 0.000000 -3.343147 -0.489881 2.978656 2.183676 11.804459 -9.243082 0.000000 0.000000 0.000000 4.942628 4.913839 -77.674011 26.682672 -13.783510 1.543240 0.000000 0.000000 0.000000 -3.343147 -0.489881 2.978656 1.399749 8.691798 -2.714116 0.000000 0.000000 0.000000 -7.303344 12.078209 78.638263 10.044962 20.259080 -4.130496 0.000000 0.000000 0.000000 
2.986234 99.766724 26.057999 0.000000 0.000000 0.000000 0.132224 0.685156 -2.068852 -38.007558 13.465161 0.796116 23.585763 -12.905028 -4.601148 31.398352 -1.523946 11.035950 -24.936551 0.046217 0.092508 0.000000 0.000000 0.000000 0.132224 0.685156 -2.068852 0.794357 -20.145271 0.230424 33.186837 10.719638 1.191931 -12.256665 0.213869 -12.536437 -28.997367 0.777083 2.164487 0.000000 0.000000 0.000000 0.132224 0.685156 -2.068852 3.339225 1.002449 -0.380452 -2.664007 -0.493148 2.338127 0.000000 0.000000 0.000000 0.000000 0.000000 0.000000 -2.698873 -0.203345 2.432336 -7.393347 3.124963 -0.249205 4.284325 6.159625 -1.226534 0.000000 0.000000 0.000000 -2.698873 -0.203345 2.432336 1.866220 10.725614 -8.019006 0.000000 0.000000 0.000000 5.387966 6.298382 -78.291159 28.718582 -12.787133 2.191693 0.000000 0.000000 0.000000 -2.698873 -0.203345 2.432336 1.133354 7.232519 -1.299496 0.000000 0.000000 0.000000 -5.565588 12.917361 78.434580 11.166382 19.091408 -4.485715 0.000000 0.000000 0.000000 
